<?xml version="1.0" standalone="no"?>
<!DOCTYPE svg PUBLIC "-//W3C//DTD SVG 1.1//EN" "http://www.w3.org/Graphics/SVG/1.1/DTD/svg11.dtd" >
<!--
2013-9-30: Created.
-->
<svg>
<metadata>
Created by iconfont
</metadata>
<defs>

<font id="iconfont" horiz-adv-x="1024" >
  <font-face
    font-family="iconfont"
    font-weight="500"
    font-stretch="normal"
    units-per-em="1024"
    ascent="896"
    descent="-128"
  />
    <missing-glyph />
    
    <glyph glyph-name="x" unicode="x" horiz-adv-x="1001"
d="M281 543q-27 -1 -53 -1h-83q-18 0 -36.5 -6t-32.5 -18.5t-23 -32t-9 -45.5v-76h912v41q0 16 -0.5 30t-0.5 18q0 13 -5 29t-17 29.5t-31.5 22.5t-49.5 9h-133v-97h-438v97zM955 310v-52q0 -23 0.5 -52t0.5 -58t-10.5 -47.5t-26 -30t-33 -16t-31.5 -4.5q-14 -1 -29.5 -0.5
t-29.5 0.5h-32l-45 128h-439l-44 -128h-29h-34q-20 0 -45 1q-25 0 -41 9.5t-25.5 23t-13.5 29.5t-4 30v167h911zM163 247q-12 0 -21 -8.5t-9 -21.5t9 -21.5t21 -8.5q13 0 22 8.5t9 21.5t-9 21.5t-22 8.5zM316 123q-8 -26 -14 -48q-5 -19 -10.5 -37t-7.5 -25t-3 -15t1 -14.5
t9.5 -10.5t21.5 -4h37h67h81h80h64h36q23 0 34 12t2 38q-5 13 -9.5 30.5t-9.5 34.5q-5 19 -11 39h-368zM336 498v228q0 11 2.5 23t10 21.5t20.5 15.5t34 6h188q31 0 51.5 -14.5t20.5 -52.5v-227h-327z" />
    

    
    <glyph glyph-name="feedback" unicode="&#58881;" d="M512-128c282.773333 0 512 229.226667 512 512S794.773333 896 512 896 0 666.773333 0 384s229.226667-512 512-512z m-170.666667 746.666667h341.333334a106.666667 106.666667 0 0 0 106.666666-106.666667v-213.333333a106.666667 106.666667 0 0 0-106.666666-106.666667h-21.952l1.6-106.666667L490.666667 192h-149.333334a106.666667 106.666667 0 0 0-106.666666 106.666667V512a106.666667 106.666667 0 0 0 106.666666 106.666667z m21.333334-256a42.666667 42.666667 0 1 1 0 85.333333 42.666667 42.666667 0 0 1 0-85.333333z m149.333333 0a42.666667 42.666667 0 1 1 0 85.333333 42.666667 42.666667 0 0 1 0-85.333333z m149.333333 0a42.666667 42.666667 0 1 1 0 85.333333 42.666667 42.666667 0 0 1 0-85.333333z"  horiz-adv-x="1024" />

    
    <glyph glyph-name="share" unicode="&#58882;" d="M512-128C229.236364-128 0 101.23636399999998 0 384S229.236364 896 512 896s512-229.236364 512-512-229.236364-512-512-512z m116.363636 605.090909a69.818182 69.818182 0 1 1-68.096 54.737455l-142.126545-82.059637A69.096727 69.096727 0 0 1 395.636364 453.818182a69.818182 69.818182 0 0 1 0-139.636364c7.68 0.069818 15.266909 1.396364 22.504727 3.956364l142.126545-82.059637a69.818182 69.818182 0 1 1 24.878546 39.377455l-128.907637 74.472727a67.490909 67.490909 0 0 1 0 68.049455l128.907637 74.472727A69.166545 69.166545 0 0 1 628.363636 477.090909z"  horiz-adv-x="1024" />

    
    <glyph glyph-name="home" unicode="&#58883;" d="M965.965265 265.634909h-105.285818v-332.334545C860.679447-128 811.923084-128 747.760175-128h-116.410182s-26.344727 32.605091-26.344728 85.038545v71.214546c0 52.433455-18.385455 71.214545-69.72509 71.214545H488.73472c-51.339636 0-69.725091-18.781091-69.725091-71.214545v-71.214546c0-52.433455-22.295273-85.038545-22.295273-85.038545h-117.76c-64.162909 0-115.665455 0-115.665454 61.323636V265.634909H58.072902C1.450356 312.040727-19.774371 378.391273 21.720902 420.770909L429.831447 861.230545a114.525091 114.525091 0 0 0 164.375273 0L1002.293993 420.770909c41.518545-42.379636 20.247273-115.130182-36.328728-155.112727z"  horiz-adv-x="1024" />

    
    <glyph glyph-name="me" unicode="&#58885;" d="M1000.558913-81.462563c0-15.706385-0.90748-31.203352-2.326872-46.537437H25.599599c-1.419392 15.334086-2.326872 30.831052-2.326872 46.537437a488.643093 488.643093 0 0 0 336.442404 464.141132 279.224624 279.224624 0 1 0 304.424647 0A488.643093 488.643093 0 0 0 1000.558913-81.462563z"  horiz-adv-x="1024" />

    
    <glyph glyph-name="enroll-num" unicode="&#58886;" d="M993.882353-24.75670600000001v-60.235294H30.117647v60.235294a482.123294 482.123294 0 0 0 347.136 462.787765 240.941176 240.941176 0 1 0 269.432471 0A482.123294 482.123294 0 0 0 993.882353-24.75670600000001z m-60.235294 0a421.647059 421.647059 0 0 1-843.294118 0h843.294118z m-421.647059 481.882353a180.705882 180.705882 0 1 1 0 361.411765 180.705882 180.705882 0 0 1 0-361.411765z"  horiz-adv-x="1024" />

    
    <glyph glyph-name="super" unicode="&#58887;" d="M512 895.524571L73.362286 775.936v-478.354286C73.362286 16.96914300000003 512-116.297143 512-116.297143s438.637714 129.682286 438.637714 413.878857V775.936L512 895.561143z m108.288-285.184c29.110857-17.078857 55.954286-35.730286 80.457143-55.771428l-38.180572-44.982857c-13.531429 11.337143-39.131429 31.670857-76.909714 60.708571l34.633143 40.045714z m101.193143-381.257142c-3.474286-15.104-10.386286-25.782857-20.809143-32.182858-10.422857-6.363429-23.442286-9.508571-39.021714-9.508571h-38.217143c-37.778286 0-56.685714 20.809143-56.685714 62.464v189.184h-18.797715c-3.474286-116.114286-39.753143-204.507429-108.873143-265.142857a727.113143 727.113143 0 0 1-42.752 53.248v-53.650286H336.164571v210.468572c-10.349714-14.08-21.138286-27.684571-32.402285-40.667429a1469.915429 1469.915429 0 0 1-16.64 81.334857c36.534857 44.982857 68.352 108.178286 95.268571 189.659429l62.061714-17.956572a855.478857 855.478857 0 0 0-48.128-114.651428v-251.026286c54.125714 45.202286 84.114286 114.688 89.892572 208.310857H412.525714v58.953143h74.971429c0.731429 38.180571 1.170286 76.288 1.170286 114.139429h60.16c0-10.166857-0.402286-48.201143-1.316572-114.102858h178.980572v-58.916571h-99.364572v-174.372571c0-14.08 5.376-21.101714 16.164572-21.101715h8.521142c8.557714 0 13.860571 2.962286 16.018286 8.850286 2.048 5.888 5.302857 31.744 9.691429 77.458286 17.956571-8.374857 36.681143-16.164571 56.173714-23.369143-4.644571-36.571429-8.704-62.464-12.178286-77.421714z"  horiz-adv-x="1024" />

    
    <glyph glyph-name="time" unicode="&#58888;" d="M460.8 893.44V896h102.4v-2.56c258.7136-25.6512 460.8-243.968 460.8-509.44 0-282.7776-229.2224-512-512-512S0 101.2224 0 384C0 649.472 202.0864 867.7888 460.8 893.44z m0-103.0144A409.6512 409.6512 0 0 1 512-25.6a409.6512 409.6512 0 0 1 406.4256 358.4H460.8V790.4256z m102.4 0V435.2h355.2256A409.8048 409.8048 0 0 1 563.2 790.4256z"  horiz-adv-x="1024" />

    
    <glyph glyph-name="apply" unicode="&#58889;" d="M512-128C229.226667-128 0 101.226667 0 384S229.226667 896 512 896s512-229.226667 512-512-229.226667-512-512-512zM475.733333 699.008c-38.698667 1.024-103.616 0.917333-143.509333-91.669333-36.992-85.546667 22.805333-192.810667 46.933333-222.570667 21.098667-26.090667 21.909333-48.533333 7.829334-60.224a107.328 107.328 0 0 0-41.770667-20.949333c-80.789333-28.586667-139.349333-68.437333-148.8-104.746667-9.450667-36.309333-4.010667-66.688 18.282667-86.421333 25.6-22.656 146.986667-55.658667 234.944-47.125334a653.824 653.824 0 0 0 36.544 144.021334C495.210667 227.114667 597.333333 298.666667 597.333333 298.666667a87.082667 87.082667 0 0 0-43.264 18.069333c-24.384 22.314667-17.408 34.048 7.829334 62.848 29.888 34.133333 80.213333 145.749333 44.373333 230.4C566.464 704 508.650667 698.133333 475.733333 699.008z m266.453334-299.157333l69.034666-50.176 12.544 17.258666a42.666667 42.666667 0 1 1-69.034666 50.176l-12.544-17.258666z m43.968-84.672l12.544 17.258666-69.034667 50.154667-12.544-17.258667 69.034667-50.154666z m-12.544-17.258667l-69.034667 50.154667-137.941333-189.866667-15.637334-94.122667 84.672 43.968 137.941334 189.866667z"  horiz-adv-x="1024" />

    
    <glyph glyph-name="buys" unicode="&#58890;" d="M512-128C229.226667-128 0 101.22666700000002 0 384S229.226667 896 512 896s512-229.226667 512-512-229.226667-512-512-512z m245.333333 277.333333a32 32 0 0 1 32 32V576a106.666667 106.666667 0 0 1-106.666666 106.666667H341.333333a106.666667 106.666667 0 0 1-106.666666-106.666667v-384a106.666667 106.666667 0 0 1 106.666666-106.666667h213.333334a106.666667 106.666667 0 0 1 106.666666 106.666667V405.333333a106.666667 106.666667 0 0 1-106.666666 106.666667h-192c-35.349333 0-64 7.317333-64 42.666667s28.650667 42.666667 64 42.666666h277.333333l23.018667-0.170666C729.6 595.392 725.333333 554.666667 725.333333 554.666667a826.197333 826.197333 0 0 0 0-86.848V181.33333300000004c0.064-3.946667 0.853333-7.829333 2.325334-11.477333l18.218666-18.218667c3.626667-1.472 7.530667-2.261333 11.456-2.304z"  horiz-adv-x="1024" />

    
    <glyph glyph-name="favorites" unicode="&#58891;" d="M512-128C229.226667-128 0 101.22666700000002 0 384S229.226667 896 512 896s512-229.226667 512-512-229.226667-512-512-512z m0 810.666667l-105.514667-187.733334L192 454.4l149.333333-156.352L314.261333 85.33333300000004 512 176.38400000000001 709.738667 85.33333300000004 682.666667 297.941333l149.333333 156.458667-214.528 40.533333L512 682.666667z"  horiz-adv-x="1024" />

    
    <glyph glyph-name="views" unicode="&#58892;" d="M512-128c282.773333 0 512 229.226667 512 512S794.773333 896 512 896 0 666.773333 0 384s229.226667-512 512-512z m320 503.168c-87.36-102.698667-200.746667-181.504-320-183.168-119.253333 1.706667-232.533333 80.512-320 183.189333-0.213333 6.805333 0 10.794667 0 17.621334 86.378667 102.954667 201.621333 184.256 320 183.210666 118.336 1.045333 233.557333-80.256 320-183.210666-0.149333-6.869333 0.149333-10.944 0-17.642667zM512 298.66666699999996a85.333333 85.333333 0 1 1 0 170.666666 85.333333 85.333333 0 0 1 0-170.666666z"  horiz-adv-x="1024" />

    
    <glyph glyph-name="subscribe" unicode="&#58893;" d="M512-128C229.226667-128 0 101.226667 0 384S229.226667 896 512 896s512-229.226667 512-512-229.226667-512-512-512z m108.032 540.138667a149.098667 149.098667 0 1 1-177.493333 3.370666C302.912 377.386667 198.528 245.162667 191.808 85.333333h319.189333a275.2 275.2 0 0 0-2.602666 36.138667c0 125.866667 84.672 229.973333 195.605333 249.493333a322.837333 322.837333 0 0 1-83.968 41.173334zM810.666667 170.666667a21.333333 21.333333 0 0 1 0 42.666666h-64v64a21.333333 21.333333 0 0 1-42.666667 0v-64h-64a21.333333 21.333333 0 0 1 0-42.666666h64v-64a21.333333 21.333333 0 0 1 42.666667 0v64h64z"  horiz-adv-x="1024" />

    
    <glyph glyph-name="help" unicode="&#58894;" d="M512-128C229.226667-128 0 101.226667 0 384S229.226667 896 512 896s512-229.226667 512-512-229.226667-512-512-512z m7.509333 752.981333c-50.517333 0-90.112-14.336-118.784-43.690666-28.672-28.672-43.008-67.584-43.008-117.418667h71.68c0 30.037333 6.144 53.248 18.432 69.632 13.653333 19.797333 36.181333 29.354667 66.901334 29.354667 24.576 0 44.373333-6.826667 58.026666-20.48 12.970667-13.653333 19.797333-32.085333 19.797334-55.978667 0-17.749333-6.826667-34.133333-19.114667-49.834667l-11.605333-12.970666c-42.325333-37.546667-68.266667-65.536-77.141334-84.650667-9.557333-17.749333-13.653333-39.594667-13.653333-64.853333v-11.605334h73.045333v11.605334c0 16.384 3.413333 31.402667 10.922667 45.056a113.365333 113.365333 0 0 0 28.672 35.498666c32.085333 27.989333 51.2 45.738667 57.344 53.248 17.066667 21.845333 25.941333 49.834667 25.941333 83.285334 0 40.96-13.653333 73.728-40.96 97.621333-27.306667 24.576-62.805333 36.181333-106.496 36.181333z m-12.288-399.36c-13.653333 0-25.941333-4.096-35.498666-13.653333-9.557333-8.874667-14.336-20.48-14.336-34.816 0-13.653333 4.778667-25.258667 14.336-34.816a48.938667 48.938667 0 0 1 35.498666-14.336c13.653333 0 25.941333 4.778667 35.498667 13.653333 9.557333 9.557333 15.018667 21.162667 15.018667 35.498667 0 14.336-4.778667 25.941333-14.336 34.816-9.557333 9.557333-21.845333 13.653333-36.181334 13.653333z"  horiz-adv-x="1024" />

    
    <glyph glyph-name="about" unicode="&#58895;" d="M512-128c282.773333 0 512 229.226667 512 512S794.773333 896 512 896 0 666.773333 0 384s229.226667-512 512-512z m0 213.333333c-164.949333 0-298.666667 133.717333-298.666667 298.666667s133.717333 298.666667 298.666667 298.666667 298.666667-133.717333 298.666667-298.666667-133.717333-298.666667-298.666667-298.666667z m0 405.333334a42.666667 42.666667 0 1 1 0 85.333333 42.666667 42.666667 0 0 1 0-85.333333z m-42.666667-85.525334v-170.282666a42.666667 42.666667 0 1 1 85.333334 0V405.12a42.666667 42.666667 0 1 1-85.333334 0z"  horiz-adv-x="1024" />

    
    <glyph glyph-name="en" unicode="&#58896;" d="M512-128C229.226667-128 0 101.226667 0 384S229.226667 896 512 896s512-229.226667 512-512-229.226667-512-512-512zM213.333333 181.12h252.16v56.618667h-192.298666v115.904h164.117333v53.077333h-164.117333v112.682667h192.277333V576H213.333333v-394.88z m308.48 0h59.861334V461.717333h1.066666l178.496-280.597333h56.597334V576H757.973333v-280.576h-1.066666L578.133333 576h-56.32v-394.88z"  horiz-adv-x="1024" />

    
    <glyph glyph-name="close" unicode="&#58897;" d="M572.330667 384l120.704 120.661333-60.373334 60.373334L512 444.330667 391.338667 565.034667 330.965333 504.661333 451.669333 384l-120.704-120.661333 60.373334-60.373334L512 323.669333l120.661333-120.704 60.373334 60.373334L572.330667 384zM512-128C229.248-128 0 101.248 0 384S229.248 896 512 896s512-229.248 512-512-229.248-512-512-512z"  horiz-adv-x="1024" />

    
    <glyph glyph-name="collection" unicode="&#58898;" d="M512 896l168.740571-321.828571L1024 504.856381l-238.933333-268.190476L828.391619-128 512 28.038095 195.608381-128 238.933333 236.641524l-238.933333 268.190476L343.259429 574.171429 512 896"  horiz-adv-x="1024" />

    
    <glyph glyph-name="earnings" unicode="&#58899;" d="M512-128c282.766222 0 512 229.233778 512 512S794.766222 896 512 896 0 666.766222 0 384s229.233778-512 512-512z m0 270.222222c-129.066667 0-248.504889 90.197333-224.440889 195.726222 17.194667 75.918222 68.352 140.472889 139.591111 176.184889a55.751111 55.751111 0 0 0-23.04 42.567111C404.110222 594.8444440000001 452.408889 625.777778 512 625.777778s107.889778-30.933333 107.889778-69.091556a55.751111 55.751111 0 0 0-23.04-42.567111c71.239111-35.697778 122.396444-100.266667 139.591111-176.184889C760.504889 232.41955599999994 641.066667 142.222222 512.014222 142.222222z m45.511111 169.187556c6.286222 0 11.377778 4.920889 11.377778 10.979555a11.192889 11.192889 0 0 1-11.377778 10.993778h-22.755555l26.908444 45.056a10.666667 10.666667 0 0 1 0.056889 11.036445 11.463111 11.463111 0 0 1-9.898667 5.518222 11.448889 11.448889 0 0 1-9.870222-5.560889L512 333.36888899999997l-29.966222 56.035555a11.605333 11.605333 0 0 1-15.502222 3.982223 10.794667 10.794667 0 0 1-4.209778-14.961778l26.922666-45.056h-22.755555c-6.286222 0-11.377778-4.920889-11.377778-10.993778 0-6.058667 5.091556-10.979556 11.377778-10.979555h34.133333v-10.993778h-34.133333c-6.286222 0-11.377778-4.920889-11.377778-10.993778 0-6.072889 5.091556-10.993778 11.377778-10.993778h34.133333v-43.946666c0-6.072889 5.091556-10.993778 11.377778-10.993778 6.286222 0 11.377778 4.920889 11.377778 10.979555v43.960889h34.133333c6.286222 0 11.377778 4.920889 11.377778 10.993778a11.192889 11.192889 0 0 1-11.377778 10.993778h-34.133333v10.993778h34.133333z"  horiz-adv-x="1024" />

    
    <glyph glyph-name="delete-class" unicode="&#58900;" d="M512-128C229.216-128 0 101.21600000000001 0 384S229.216 896 512 896s512-229.216 512-512-229.216-512-512-512z m162.112 621.312a32.096 32.096 0 0 1 0 45.376l-7.424 7.392a31.872 31.872 0 0 1-45.376 0L512 436.8l-109.312 109.312a32.096 32.096 0 0 1-45.376 0l-7.392-7.424a31.872 31.872 0 0 1 0-45.376L459.2 384l-109.312-109.312a32.096 32.096 0 0 1 0-45.376l7.424-7.392a31.872 31.872 0 0 1 45.376 0L512 331.20000000000005l109.312-109.312a32.096 32.096 0 0 1 45.376 0l7.392 7.424a31.872 31.872 0 0 1 0 45.376L564.8 384l109.312 109.312z"  horiz-adv-x="1024" />

    
    <glyph glyph-name="edit-class" unicode="&#58901;" d="M512-128C229.216-128 0 101.21600000000001 0 384S229.216 896 512 896s512-229.216 512-512-229.216-512-512-512z m101.056 666.336l53.28-53.28 26.624 26.624a37.664 37.664 0 0 1-53.28 53.28l-26.624-26.624z m-186.496-293.056l-53.28 53.28L320 192l106.56 53.28z m173.216 279.744l-213.152-213.12 53.28-53.28 213.12 213.12-53.248 53.28z"  horiz-adv-x="1024" />

    
    <glyph glyph-name="end-class" unicode="&#58902;" d="M512-128C229.216-128 0 101.21600000000001 0 384S229.216 896 512 896s512-229.216 512-512-229.216-512-512-512z m-186.176 634.176v-244.352a64 64 0 0 1 64-64h244.352a64 64 0 0 1 64 64v244.352a64 64 0 0 1-64 64h-244.352a64 64 0 0 1-64-64z"  horiz-adv-x="1024" />

    
    <glyph glyph-name="earnings1" unicode="&#58903;" d="M511.992204-128C247.986385-128 3.71584 63.022545 52.891113 286.487273a553.495273 553.495273 0 0 0 285.533091 373.061818 119.226182 119.226182 0 0 0-47.127273 90.181818C291.320204 830.487273 390.112931 896 511.992204 896c121.902545 0 220.695273-65.489455 220.695272-146.292364a119.226182 119.226182 0 0 0-47.127272-90.158545 553.495273 553.495273 0 0 0 285.533091-373.085091C1020.315113 63.022545 775.998022-128 511.992204-128z m104.657454 358.260364a23.272727 23.272727 0 1 1 0 46.545454h-46.545454l55.04 95.418182a23.272727 23.272727 0 1 1-40.308364 23.272727l-61.277091-118.690909-61.300364 118.690909a23.272727 23.272727 0 0 1-40.308363-23.272727l55.063273-95.418182h-46.545455a23.272727 23.272727 0 1 1 0-46.545454h69.818182v-23.272728h-69.818182a23.272727 23.272727 0 1 1 0-46.545454h69.818182v-93.090909a23.272727 23.272727 0 1 1 46.545454 0v93.090909h69.818182a23.272727 23.272727 0 1 1 0 46.545454h-69.818182v23.272728h69.818182z"  horiz-adv-x="1024" />

    
    <glyph glyph-name="fail" unicode="&#58904;" d="M512-128C229.2224-128 0 101.2224 0 384S229.2224 896 512 896s512-229.2224 512-512-229.2224-512-512-512zM447.744 650.752l19.2-390.912h65.28l19.2 390.912h-103.68z m51.456-432.384c-16.896 0-30.72-5.376-41.472-16.128-12.288-10.752-17.664-24.576-17.664-41.472 0-16.896 5.376-30.72 17.664-41.472 10.752-10.752 24.576-16.896 41.472-16.896 16.896 0 30.72 5.376 43.008 16.128 10.752 10.752 16.896 25.344 16.896 42.24 0 16.896-6.144 30.72-16.896 41.472-11.52 10.752-26.112 16.128-43.008 16.128z"  horiz-adv-x="1024" />

    
    <glyph glyph-name="more-operator" unicode="&#58905;" d="M472.615385 423.384615v177.23077a19.692308 19.692308 0 0 0 19.88923 19.692307h38.99077c10.988308 0 19.889231-8.802462 19.88923-19.692307v-177.23077h177.23077a19.692308 19.692308 0 0 0 19.692307-19.88923v-38.99077c0-10.988308-8.802462-19.889231-19.692307-19.88923h-177.23077v-177.23077a19.692308 19.692308 0 0 0-19.88923-19.692307h-38.99077c-10.988308 0-19.889231 8.802462-19.88923 19.692307v177.23077h-177.23077a19.692308 19.692308 0 0 0-19.692307 19.88923v38.99077c0 10.988308 8.802462 19.889231 19.692307 19.88923h177.23077z m39.384615-551.384615C229.218462-128 0 101.21846200000005 0 384S229.218462 896 512 896s512-229.218462 512-512-229.218462-512-512-512z m0 39.384615c261.021538 0 472.615385 211.593846 472.615385 472.615385S773.021538 856.6153850000001 512 856.6153850000001 39.384615 645.021538 39.384615 384s211.593846-472.615385 472.615385-472.615385z"  horiz-adv-x="1024" />

    
    <glyph glyph-name="keyboard" unicode="&#58906;" d="M512-128C229.218462-128 0 101.21846200000005 0 384S229.218462 896 512 896s512-229.218462 512-512-229.218462-512-512-512z m0 39.384615c261.021538 0 472.615385 211.593846 472.615385 472.615385S773.021538 856.6153850000001 512 856.6153850000001 39.384615 645.021538 39.384615 384s211.593846-472.615385 472.615385-472.615385zM315.076923 561.033846a19.692308 19.692308 0 1 0 39.384615 0v-38.990769a19.692308 19.692308 0 1 0-39.384615 0v38.990769z m-59.076923-157.538461a19.692308 19.692308 0 1 0 39.384615 0v-38.99077a19.692308 19.692308 0 1 0-39.384615 0v38.99077z m177.230769 157.538461a19.692308 19.692308 0 1 0 39.384616 0v-38.990769a19.692308 19.692308 0 1 0-39.384616 0v38.990769z m-59.076923-157.538461a19.692308 19.692308 0 1 0 39.384616 0v-38.99077a19.692308 19.692308 0 1 0-39.384616 0v38.99077z m177.230769 157.538461a19.692308 19.692308 0 1 0 39.384616 0v-38.990769a19.692308 19.692308 0 1 0-39.384616 0v38.990769z m-59.076923-157.538461a19.692308 19.692308 0 1 0 39.384616 0v-38.99077a19.692308 19.692308 0 1 0-39.384616 0v38.99077z m177.23077 157.538461a19.692308 19.692308 0 1 0 39.384615 0v-38.990769a19.692308 19.692308 0 1 0-39.384615 0v38.990769z m-59.076924-157.538461a19.692308 19.692308 0 1 0 39.384616 0v-38.99077a19.692308 19.692308 0 1 0-39.384616 0v38.99077z m118.153847 0a19.692308 19.692308 0 1 0 39.384615 0v-38.99077a19.692308 19.692308 0 1 0-39.384615 0v38.99077zM236.307692 206.769231c0 10.870154 8.664615 19.692308 19.633231 19.692307h512.118154c10.830769 0 19.633231-8.743385 19.633231-19.692307 0-10.870154-8.664615-19.692308-19.633231-19.692308H255.940923A19.613538 19.613538 0 0 0 236.307692 206.769231z"  horiz-adv-x="1024" />

    
    <glyph glyph-name="male" unicode="&#58907;" d="M864.730375 665.093197l-165.281685-165.330441a390.045275 390.045275 0 1 0-68.599213 69.281792l164.940396 164.989151L668.44009 861.383482c-19.112218 19.112218-12.530204 34.616518 13.992875 34.616518h292.82649c26.815613 0 48.609392-22.086314 48.609392-48.609392v-292.826491c0-26.815613-15.796834-32.812559-34.616518-13.992874l-124.521954 124.521954zM390.045275-30.357528A292.533956 292.533956 0 1 1 390.045275 554.710384a292.533956 292.533956 0 0 1 0-585.067912z"  horiz-adv-x="1024" />

    
    <glyph glyph-name="enroll-people" unicode="&#58908;" d="M512-128C229.233778-128 0 101.23377800000003 0 384S229.233778 896 512 896s512-229.233778 512-512-229.233778-512-512-512z m137.045333 318.051556a203.605333 203.605333 0 0 1-140.188444 193.393777A116.337778 116.337778 0 0 1 445.425778 597.333333a116.366222 116.366222 0 0 1-63.431111-213.888A203.605333 203.605333 0 0 1 241.777778 190.051556c0-6.542222 0.384-12.999111 0.967111-19.384889h405.333333c0.597333 6.4 0.967111 12.842667 0.967111 19.384889zM536.561778 170.66666699999996h244.721778c0.568889 6.4 0.938667 12.842667 0.938666 19.384889-0.028444 87.978667-54.613333 165.987556-135.296 193.393777 41.671111 28.088889 60.586667 81.223111 46.435556 130.616889-14.136889 49.393778-57.941333 83.271111-107.662222 83.271111a108.856889 108.856889 0 0 1-49.123556-11.719111c27.676444-13.966222 49.351111-39.495111 58.524444-71.537778 14.136889-49.408-4.750222-102.542222-46.449777-130.631111 80.696889-27.406222 135.281778-105.415111 135.310222-193.393777 0-6.542222-0.369778-12.999111-0.938667-19.384889H536.561778z"  horiz-adv-x="1024" />

    
    <glyph glyph-name="pause" unicode="&#58909;" d="M512-128C229.216-128 0 101.216 0 384S229.216 896 512 896s512-229.216 512-512-229.216-512-512-512z m0 64c247.424 0 448 200.576 448 448S759.424 832 512 832 64 631.424 64 384s200.576-448 448-448z m-128 639.776C384 593.6 398.208 608 416 608c17.664 0 32-14.4 32-32.224v-383.552C448 174.4 433.792 160 416 160c-17.664 0-32 14.4-32 32.224V575.776z m192 0C576 593.6 590.208 608 608 608c17.664 0 32-14.4 32-32.224v-383.552C640 174.4 625.792 160 608 160c-17.664 0-32 14.4-32 32.224V575.776z"  horiz-adv-x="1024" />

    
    <glyph glyph-name="record" unicode="&#58910;" d="M512.196923 230.423631c-104.321969 0-188.896492 87.985231-188.896492 196.513477V699.132062c0 108.551877 84.574523 196.521354 188.888615 196.521353 104.329846 0 188.904369-87.969477 188.904369-196.521353v-272.194954c0-108.520369-84.574523-196.513477-188.896492-196.513477zM786.8416 504.359385c21.945108 0 39.699692-17.408 39.699692-38.896247v-53.287384c0-154.576738-125.006769-287.696738-276.732061-309.578831v-179.081846h100.753723c22.488615 0 50.3808-2.953846 50.3808-25.584246 0-22.583138-27.892185-25.584246-50.3808-25.584246H373.484308c-22.512246 0-50.3808 2.993231-50.3808 25.584246 0 22.6304 27.868554 25.584246 50.3808 25.584246h100.753723v179.081846C317.447877 119.926154 197.450831 254.078031 197.450831 412.175754v53.287384c0 21.488246 17.809723 38.896246 39.699692 38.896247 21.992369 0 39.778462-17.408 39.778462-38.896247v-53.287384c0-126.912985 105.456246-230.218831 235.094646-230.218831s235.071015 103.305846 235.071015 230.218831v53.287384c0 21.488246 17.801846 38.896246 39.746954 38.896247z"  horiz-adv-x="1024" />

    
    <glyph glyph-name="play" unicode="&#58911;" d="M512-128C229.216-128 0 101.216 0 384S229.216 896 512 896s512-229.216 512-512-229.216-512-512-512z m0 64c247.424 0 448 200.576 448 448S759.424 832 512 832 64 631.424 64 384s200.576-448 448-448z m202.592 477.952c29.504-19.648 29.376-51.616 0-71.2l-277.184-184.8c-29.504-19.648-53.408-6.976-53.408 28.224V570.56c0 35.232 24 47.776 53.408 28.192l277.184-184.8z"  horiz-adv-x="1024" />

    
    <glyph glyph-name="public" unicode="&#58912;" d="M512 156.444444a340.906667 340.906667 0 0 1 152.803556-284.444444H142.222222a142.222222 142.222222 0 0 0-142.222222 142.222222V753.777778a142.222222 142.222222 0 0 0 142.222222 142.222222h568.888889a142.222222 142.222222 0 0 0 142.222222-142.222222v-256c-188.501333 0-341.333333-152.832-341.333333-341.333334zM113.777778 782.222222a28.444444 28.444444 0 1 1 0-56.888889h113.777778a28.444444 28.444444 0 1 1 0 56.888889H113.777778z m0-170.666666a28.444444 28.444444 0 0 1 0-56.888889h113.777778a28.444444 28.444444 0 0 1 0 56.888889H113.777778z m0-170.666667a28.444444 28.444444 0 0 1 0-56.888889h369.777778a28.444444 28.444444 0 0 1 0 56.888889H113.777778z m0-199.111111a28.444444 28.444444 0 0 1 0-56.888889h312.888889a28.444444 28.444444 0 0 1 0 56.888889H113.777778z m0-199.111111a28.444444 28.444444 0 0 1 0-56.888889h312.888889a28.444444 28.444444 0 0 1 0 56.888889H113.777778zM398.222222 782.222222a56.888889 56.888889 0 0 1-56.888889-56.888889v-113.777777a56.888889 56.888889 0 0 1 56.888889-56.888889h312.888889a56.888889 56.888889 0 0 1 56.888889 56.888889V725.333333a56.888889 56.888889 0 0 1-56.888889 56.888889H398.222222z m455.111111-910.222222c-157.098667 0-284.444444 127.345778-284.444444 284.444444s127.345778 284.444444 284.444444 284.444445 284.444444-127.345778 284.444445-284.444445-127.345778-284.444444-284.444445-284.444444z m160.056889 317.667556a28.444444 28.444444 0 0 1-37.745778 42.496l-155.818666-138.723556-66.190222 74.382222A28.444444 28.444444 0 0 1 711.111111 130.104889l75.576889-84.963556a27.932444 27.932444 0 0 1 22.755556-9.073777c10.524444-6.940444 24.433778-5.973333 33.934222 2.332444l170.012444 151.267556z"  horiz-adv-x="1137" />

    
    <glyph glyph-name="shutdown-class" unicode="&#58913;" d="M512-128c282.784 0 512 229.216 512 512S794.784 896 512 896 0 666.784 0 384s229.216-512 512-512z m32 576v31.68a32 32 0 1 1-64 0V448h64z m-128 0v31.936A96.096 96.096 0 0 0 512 576c53.024 0 96-42.848 96-96.064V448h32.16a32 32 0 0 0 31.84-31.904v-192.192c0-17.6-14.592-31.904-31.84-31.904h-256.32a32 32 0 0 0-31.84 31.904v192.192c0 17.6 14.592 31.904 31.84 31.904H416z m0-96.32v-63.36c0-18.144 14.208-32.32 31.68-32.32h128.64c17.248 0 31.68 14.464 31.68 32.32v63.36a31.84 31.84 0 0 1-31.68 32.32h-128.64c-17.248 0-31.68-14.464-31.68-32.32z"  horiz-adv-x="1024" />

    
    <glyph glyph-name="edit-class1" unicode="&#58914;" d="M0 773.997714A122.051048 122.051048 0 0 0 122.002286 896h779.995428A122.051048 122.051048 0 0 0 1024 773.997714v-779.995428A122.051048 122.051048 0 0 0 901.997714-128H122.002286A122.051048 122.051048 0 0 0 0-5.997713999999974V773.997714z m656.822857-172.787809l72.411429-72.387048 36.205714 36.181333a51.2 51.2 0 1 1-72.411429 72.411429l-36.205714-36.205714zM403.382857 202.97142899999994l-72.411428 72.411428-72.411429-144.822857 144.822857 72.411429zM638.780952 583.119238L349.086476 293.49790499999995l72.411429-72.411429L711.192381 510.70781l-72.411429 72.411428z"  horiz-adv-x="1024" />

    
    <glyph glyph-name="wallte" unicode="&#58915;" d="M1074.551415 372.243787h-148.582758c-37.145689 0-63.141984-28.357008-63.141983-68.858892v-52.646763c0-40.501885 25.996294-64.820081 63.141983-64.820081h148.582758c37.145689 0 63.141984 24.318196 63.141984 64.820081v52.61832c0 40.530327-25.996294 68.887335-63.141984 68.887335z m-127.734526-137.859997c-22.924522 0-45.820602 19.682096-45.820602 47.271161 0 27.560623 19.084807 47.242718 45.79216 47.242718 22.924522 0 45.820602-19.682096 45.820601-47.242718 0-23.63558-19.056364-47.271161-45.792159-47.271161z m-133.62209 23.607138v47.271161c0 70.906741 41.980886 137.859998 110.697568 137.859997h175.631418V691.281459c0 82.71031-53.47159 157.570536-133.622089 157.570536l22.896079-106.374333c11.462261-3.925042 22.89608-15.757054 22.89608-31.514107l-3.811273-47.242719c0-15.757054-7.622546-23.63558-22.89608-23.63558H103.075022c-15.273534 0-22.89608 3.925042-22.89608 23.607138V710.991997c0 15.757054 7.622546 23.63558 22.89608 23.63558h87.801488l198.527498 114.224418H152.735339C72.527954 848.823552 0 770.038284 0 687.356417V25.58860900000002C0-57.09325899999999 64.905408-128 145.055908-128h805.572254c80.178942 0 152.706896 74.831783 152.706896 157.570536v90.588837h-175.631418c-68.716681 3.925042-114.508841 66.953257-114.508841 137.859997z m110.697568 433.290531l-61.065693 149.663566C855.175686 888.244629 797.921265 903.97324 767.374198 892.141228L286.328986 691.309901h637.563381z"  horiz-adv-x="1137" />

    
    <glyph glyph-name="donate-rank" unicode="&#58916;" d="M760.718222-77.36888899999997h-0.170666l-414.72 0.910222c-26.339556 0-51.541333 11.320889-70.087112 31.516445a110.535111 110.535111 0 0 0-28.842666 71.168l-146.375111 477.866666a28.330667 28.330667 0 0 0 7.623111 29.184 23.495111 23.495111 0 0 0 27.875555 3.015112l232.277334-135.281778 164.864 304.64a24.689778 24.689778 0 0 0 21.447111 13.368889h0.056889c8.874667 0 17.066667-5.063111 21.504-13.255111l180.679111-329.955556 213.560889 157.070222a23.495111 23.495111 0 0 0 29.127111-0.796444c8.533333-6.997333 12.003556-19.114667 8.590222-30.094222l-148.252444-477.127112c-2.446222-57.230222-46.08-102.229333-99.157334-102.286222zM167.651556 456.476444l127.886222-417.223111c0.796444-2.787556 1.251556-5.632 1.251555-8.533333a55.125333 55.125333 0 0 1 14.336-37.603556c9.329778-10.126222 21.674667-15.644444 34.872889-15.701333l414.663111-0.910222 0.113778-27.022222v27.022222c27.136 0 49.208889 23.722667 49.265778 53.077333a29.013333 29.013333 0 0 0 1.308444 8.533334l125.838223 404.935111-174.193778-128.113778c-5.688889-4.152889-12.743111-5.632-19.456-3.982222a25.144889 25.144889 0 0 0-16.042667 12.572444L554.837333 638.862222 399.246222 351.28888900000004a23.893333 23.893333 0 0 0-33.393778-10.126222L167.651556 456.533333zM104.163556 494.364444A104.504889 104.504889 0 0 0 0.341333 599.267556c0 57.856 46.592 104.96 103.822223 104.96s103.822222-47.104 103.822222-104.96A104.504889 104.504889 0 0 0 104.106667 494.364444z m0 152.632889a47.445333 47.445333 0 0 1-47.160889-47.672889c0-26.282667 21.162667-47.616 47.160889-47.616a47.445333 47.445333 0 0 1 47.104 47.616 47.445333 47.445333 0 0 1-47.104 47.672889z m455.111111 37.831111a104.504889 104.504889 0 0 0-103.822223 104.96c0 57.856 46.648889 104.96 103.822223 104.96 57.287111 0 103.879111-47.104 103.879111-104.96A104.561778 104.561778 0 0 0 559.217778 684.771556z m0.227555 153.031112a47.445333 47.445333 0 0 1-47.160889-47.672889c0-26.282667 21.162667-47.672889 47.217778-47.672889a47.445333 47.445333 0 0 1 47.104 47.672889 47.445333 47.445333 0 0 1-47.160889 47.672889z m450.787556-342.528A104.504889 104.504889 0 0 0 906.467556 600.177778c0 57.856 46.592 104.96 103.822222 104.96 57.287111 0 103.879111-47.104 103.879111-104.96a104.561778 104.561778 0 0 0-103.879111-104.96z m0 152.632888a47.445333 47.445333 0 0 1-47.160889-47.672888c0-26.282667 21.162667-47.672889 47.217778-47.672889a47.445333 47.445333 0 0 1 47.104 47.672889 47.445333 47.445333 0 0 1-47.160889 47.672888z"  horiz-adv-x="1137" />

    
    <glyph glyph-name="switch" unicode="&#58917;" d="M360.106667 211.854222H0L498.346667-128l-57.628445 226.474667h639.943111v113.379555H360.106667z m611.384889 346.567111H1137.777778L624.412444 896l57.742223-230.570667H56.206222l0.910222-107.008h914.375112z"  horiz-adv-x="1137" />

    
    <glyph glyph-name="wechat-pay" unicode="&#58918;" d="M425.496381 248.44190500000002a33.889524 33.889524 0 0 0-18.358857-4.973715c-15.018667 0-26.697143 8.265143-33.377524 19.846096l-3.34019 4.949333-106.788572 231.472762c-1.657905 3.31581-1.657905 4.949333-1.657905 8.289524 0 9.898667 8.338286 19.821714 20.016762 19.821714 4.998095 0 8.338286-1.657905 11.702857-3.315809l125.123048-89.283048c8.338286-6.607238 20.016762-9.923048 31.695238-9.923048 6.680381 0 13.360762 1.657905 20.016762 3.31581L1061.205333 689.883429C954.416762 813.884952 780.921905 894.902857 583.996952 894.902857 261.973333 894.902857 0 678.278095 0 412.111238c0-145.505524 78.433524-276.114286 201.898667-363.763809 9.99619-6.582857 16.676571-18.16381 16.676571-31.402667 0-4.949333-1.657905-8.265143-1.657905-11.580952-9.99619-36.352-25.039238-94.232381-26.697143-97.52381-1.682286-4.973714-3.34019-9.923048-3.34019-14.872381 0-9.947429 8.338286-19.870476 20.016762-19.870476 5.022476 0 8.338286 1.657905 11.702857 3.315809l128.463238 72.752762c9.99619 4.949333 20.016762 8.265143 31.695238 8.265143 6.680381 0 11.702857-1.657905 16.700953-3.315809 60.074667-16.530286 123.465143-26.453333 190.22019-26.453334 322.023619 0 583.996952 216.600381 583.996952 482.791619 0 81.017905-23.356952 157.062095-66.755047 223.207619L428.81219 251.73333300000002l-3.315809-3.315809z"  horiz-adv-x="1170" />

    
    <glyph glyph-name="donate" unicode="&#58919;" d="M512-128C229.218462-128 0 101.21846200000005 0 384S229.218462 896 512 896s512-229.218462 512-512-229.218462-512-512-512z m0 39.384615c261.021538 0 472.615385 211.593846 472.615385 472.615385S773.021538 856.6153850000001 512 856.6153850000001 39.384615 645.021538 39.384615 384s211.593846-472.615385 472.615385-472.615385z m126.030769 478.089847h-94.523077v-27.766154h94.523077c17.408 0 31.507692-12.425846 31.507693-27.766154 0-15.320615-14.099692-27.766154-31.507693-27.766154h-94.523077v-111.025231c0-15.340308-14.099692-27.766154-31.507692-27.766154-17.408 0-31.507692 12.425846-31.507692 27.766154v111.044923h-94.523077c-17.408 0-31.507692 12.406154-31.507693 27.766154 0 15.320615 14.099692 27.766154 31.507693 27.766154h94.523077v27.746462h-94.523077c-17.408 0-31.507692 12.425846-31.507693 27.766153 0 15.320615 14.099692 27.766154 31.507693 27.766154h63.015384l-74.555077 113.821539c-8.546462 13.252923-3.347692 30.129231 11.638154 37.750154 15.005538 7.620923 34.185846 3.150769 42.929231-10.003693L512 444.987077l82.963692 141.587692c5.592615 8.664615 16.009846 14.020923 27.313231 14.040616 11.303385 0.019692 21.76-5.297231 27.392-13.942154 5.632-8.625231 5.572923-19.259077-0.137846-27.864616l-74.515692-113.821538h63.015384c17.408 0 31.507692-12.406154 31.507693-27.766154 0-15.320615-14.099692-27.766154-31.507693-27.766154z"  horiz-adv-x="1024" />

    
    <glyph glyph-name="picture" unicode="&#58920;" d="M0 742.4a153.6 153.6 0 0 0 153.6768 153.6h819.0464A153.6256 153.6256 0 0 0 1126.4 742.4v-716.8a153.6 153.6 0 0 0-153.6768-153.6H153.6768A153.6256 153.6256 0 0 0 0 25.6V742.4zM506.7776 152.064l-143.36 191.1552c-16.896 22.528-44.3136 22.528-61.2096 0l-169.216-225.5872c-16.8704-22.528-7.7312-40.8064 20.48-40.8064H973.056c28.1856 0 38.9888 19.584 24.2176 43.776l-228.096 373.248c-14.848 24.2688-38.7328 24.192-53.504 0l-208.896-341.7856zM281.6 537.6a76.8 76.8 0 1 1 0 153.6 76.8 76.8 0 0 1 0-153.6z"  horiz-adv-x="1126" />

    
    <glyph glyph-name="query-class" unicode="&#58921;" d="M917.760256 150.16959999999995l189.8496-189.824c10.0864-10.0608 10.2144-26.2656 0.128-36.352-9.984-9.984-26.24-9.9328-36.3264 0.1536l-185.6256 185.6a204.8 204.8 0 1 0 32 40.4224zM870.400256 477.7472A254.8224 254.8224 0 0 1 742.400256 512c-141.3888 0-256-114.6112-256-256s114.6112-256 256-256c46.6176 0 90.368 12.4672 128 34.2528v-34.1248A127.9232 127.9232 0 0 0 742.425856-128H128.000256A127.9744 127.9744 0 0 0 0.000256 0.12800000000004275V767.8720000000001A127.9232 127.9232 0 0 0 127.974656 896H742.400256A127.9744 127.9744 0 0 0 870.400256 767.8720000000001v-290.1248zM230.400256 716.8c0-14.2336 11.4688-25.6 25.6-25.6h358.4c14.208 0 25.6 11.4688 25.6 25.6 0 14.2336-11.4688 25.6-25.6 25.6H256.000256c-14.208 0-25.6-11.4688-25.6-25.6z m0-153.6c0-14.2336 11.4688-25.6 25.6-25.6h358.4c14.208 0 25.6 11.4688 25.6 25.6 0 14.2336-11.4688 25.6-25.6 25.6H256.000256c-14.208 0-25.6-11.4688-25.6-25.6z"  horiz-adv-x="1126" />

    
    <glyph glyph-name="female" unicode="&#58922;" d="M401.408 207.592727l-100.538182-100.538182 98.769455-98.722909a46.545455 46.545455 0 0 0-65.815273-65.815272L235.054545 41.239273l-131.630545-131.630546a46.545455 46.545455 0 0 0-65.815273 65.815273l131.677091 131.630545-98.769454 98.769455a46.545455 46.545455 0 1 0 65.815272 65.815273l98.722909-98.722909 100.538182 100.445091a372.363636 372.363636 0 1 0 65.815273-65.815273z m35.002182 92.578909a279.272727 279.272727 0 1 1-8.285091 8.285091 47.010909 47.010909 0 0 0 8.285091-8.285091z"  horiz-adv-x="1024" />

    
    <glyph glyph-name="voice" unicode="&#58923;" d="M512-128C229.218462-128 0 101.218462 0 384S229.218462 896 512 896s512-229.218462 512-512-229.218462-512-512-512z m0 39.384615c261.021538 0 472.615385 211.593846 472.615385 472.615385S773.021538 856.615385 512 856.615385 39.384615 645.021538 39.384615 384s211.593846-472.615385 472.615385-472.615385z m-103.857231 540.100923L334.769231 384l73.373538-67.505231S436.381538 350.267077 436.381538 384c0 33.772308-28.219077 67.485538-28.219076 67.485538z m90.308923 84.401231l-39.502769-39.364923s45.134769-33.792 45.134769-112.521846c0-78.769231-45.134769-112.521846-45.134769-112.521846l39.502769-39.384616S560.541538 305.230769 560.541538 384c0 78.729846-62.089846 151.886769-62.089846 151.886769zM673.398154 384c0 129.398154-95.940923 236.307692-95.940923 236.307692l-39.502769-39.384615s79.025231-78.769231 79.02523-196.923077-79.025231-196.923077-79.02523-196.923077l39.502769-39.384615s95.940923 106.889846 95.940923 236.307692z"  horiz-adv-x="1024" />

    
    <glyph glyph-name="subscribe1" unicode="&#58924;" d="M734.035812 432.162092A553.360725 553.360725 0 0 0 877.961525 361.588763c-190.145759-33.45834-335.278166-211.902822-335.278166-427.645125A471.707748 471.707748 0 0 1 547.144471-128H0.036616c11.518445 273.956159 190.438291 500.595277 429.765981 565.939598a255.563213 255.563213 0 1 0 304.233215-5.777506zM1060.793985 18.265968000000044h-109.699476v-109.699476a36.566492 36.566492 0 1 0-73.132984 0v109.699476h-109.699477a36.566492 36.566492 0 1 0 0 73.132985h109.699477v109.699476a36.566492 36.566492 0 1 0 73.132984 0v-109.699476h109.699476a36.566492 36.566492 0 1 0 0-73.132985z"  horiz-adv-x="1097" />

    
    <glyph glyph-name="go-top" unicode="&#58925;" d="M78.769231 896h1102.769231a78.769231 78.769231 0 1 0 0-157.538462H78.769231a78.769231 78.769231 0 1 0 0 157.538462z m971.500307-984.891077l-839.719384 0.551385A49.545846 49.545846 0 0 0 165.415385-12.366768999999977c18.313846 30.247385 387.899077 634.761846 419.524923 686.355692a53.641846 53.641846 0 0 0 90.978461 0c23.118769-37.179077 393.846154-644.450462 419.485539-688.443077a49.230769 49.230769 0 0 0-45.13477-74.436923z"  horiz-adv-x="1260" />

    
    <glyph glyph-name="refresh" unicode="&#58926;" d="M979.671313 465.919812a29.860222 29.860222 0 0 0-34.125968-22.949713c-15.399343 4.265746-264.476251 74.05335-282.221754 79.385533-12.797238 3.924486-12.797238 20.560896 3.327282 31.39589l93.846412 63.30367a340.961076 340.961076 0 1 1 44.065156-408.573149l146.187114-87.703738a511.889517 511.889517 0 1 0-47.307123 592.938691l77.42329 52.212731c14.588851 9.853873 32.419669 6.910508 30.756028-9.043382-1.322381-12.967868-29.518962-269.083256-31.950437-290.966533z"  horiz-adv-x="1024" />

    
    <glyph glyph-name="go-bottom" unicode="&#58927;" d="M78.769231 29.53846199999998h1102.769231a78.769231 78.769231 0 0 0 0-157.538462H78.769231a78.769231 78.769231 0 0 0 0 157.538462zM210.156308 857.009231l839.719384-0.748308a49.545846 49.545846 0 0 0 45.174154-76.012308c-18.313846-30.247385-388.056615-634.643692-419.682461-686.237538a53.641846 53.641846 0 0 0-90.978462 0C561.309538 131.26892299999997 190.857846 738.461538 165.100308 782.611692A49.230769 49.230769 0 0 0 210.156308 857.009231z"  horiz-adv-x="1260" />

    
    <glyph glyph-name="upgrade-to" unicode="&#58928;" d="M673.050678 465.381053v-484.783158A108.005053 108.005053 0 0 0 565.368994-127.46105299999999H457.363941a107.843368 107.843368 0 0 0-107.681684 108.112842V465.381053H136.474678c-59.607579 0-73.242947 34.169263-31.474526 75.290947L434.835941 865.010526a109.945263 109.945263 0 0 0 153.061053 0l329.835789-324.446315c42.307368-41.498947 28.672-75.237053-31.420631-75.237053h-213.261474z"  horiz-adv-x="1024" />

    
    <glyph glyph-name="more-list" unicode="&#58929;" d="M120.470588 896h240.941177a120.470588 120.470588 0 0 0 120.470588-120.470588v-240.941177a120.470588 120.470588 0 0 0-120.470588-120.470588H120.470588a120.470588 120.470588 0 0 0-120.470588 120.470588V775.529412a120.470588 120.470588 0 0 0 120.470588 120.470588z m30.117647-60.235294a90.352941 90.352941 0 0 1-90.352941-90.352941v-180.705883a90.352941 90.352941 0 0 1 90.352941-90.352941h180.705883a90.352941 90.352941 0 0 1 90.352941 90.352941V745.411765a90.352941 90.352941 0 0 1-90.352941 90.352941H150.588235z m512 60.235294h240.941177a120.470588 120.470588 0 0 0 120.470588-120.470588v-240.941177a120.470588 120.470588 0 0 0-120.470588-120.470588h-240.941177a120.470588 120.470588 0 0 0-120.470588 120.470588V775.529412a120.470588 120.470588 0 0 0 120.470588 120.470588z m30.117647-60.235294a90.352941 90.352941 0 0 1-90.352941-90.352941v-180.705883a90.352941 90.352941 0 0 1 90.352941-90.352941h180.705883a90.352941 90.352941 0 0 1 90.352941 90.352941V745.411765a90.352941 90.352941 0 0 1-90.352941 90.352941h-180.705883zM120.470588 353.882353h240.941177a120.470588 120.470588 0 0 0 120.470588-120.470588v-240.941177a120.470588 120.470588 0 0 0-120.470588-120.470588H120.470588a120.470588 120.470588 0 0 0-120.470588 120.470588v240.941177a120.470588 120.470588 0 0 0 120.470588 120.470588z m30.117647-60.235294a90.352941 90.352941 0 0 1-90.352941-90.352941v-180.705883a90.352941 90.352941 0 0 1 90.352941-90.352941h180.705883a90.352941 90.352941 0 0 1 90.352941 90.352941v180.705883a90.352941 90.352941 0 0 1-90.352941 90.352941H150.588235z m512 60.235294h240.941177a120.470588 120.470588 0 0 0 120.470588-120.470588v-240.941177a120.470588 120.470588 0 0 0-120.470588-120.470588h-240.941177a120.470588 120.470588 0 0 0-120.470588 120.470588v240.941177a120.470588 120.470588 0 0 0 120.470588 120.470588z m30.117647-60.235294a90.352941 90.352941 0 0 1-90.352941-90.352941v-180.705883a90.352941 90.352941 0 0 1 90.352941-90.352941h180.705883a90.352941 90.352941 0 0 1 90.352941 90.352941v180.705883a90.352941 90.352941 0 0 1-90.352941 90.352941h-180.705883z"  horiz-adv-x="1024" />

    
    <glyph glyph-name="red-packet" unicode="&#58930;" d="M402.5856 645.376C172.4416 670.5664 118.7328 774.4 106.24 821.504A102.4 102.4 0 0 1 102.4 793.7024S102.4 606.0544 359.0656 551.936a153.6 153.6 0 1 1 305.8688 0C921.6 606.0544 921.6 793.7024 921.6 793.7024c0 9.6256-1.3312 18.944-3.84 27.7504-12.544-47.104-66.2528-150.8864-296.3456-176.0768A153.088 153.088 0 0 1 512 691.2a153.088 153.088 0 0 1-109.4144-45.824zM102.4 794.112C102.4 850.432 148.224 896 204.4928 896h615.0144C875.8784 896 921.6 850.0224 921.6 794.112v-820.224c0-56.2688-45.824-101.888-102.0928-101.888H204.4928A102.2464 102.2464 0 0 0 102.4-26.112V794.112z"  horiz-adv-x="1024" />

    
    <glyph glyph-name="medal" unicode="&#58931;" d="M502.555429 164.571429C300.571429 164.571429 136.841143 328.301714 136.841143 530.285714S300.571429 896 502.555429 896s365.714286-163.730286 365.714285-365.714286-163.730286-365.714286-365.714285-365.714285z m0 54.857142c171.684571 0 310.857143 139.172571 310.857142 310.857143S674.24 841.142857 502.555429 841.142857 191.698286 701.970286 191.698286 530.285714s139.172571-310.857143 310.857143-310.857143zM172.333714 256s75.812571-103.131429 239.414857-153.325714c-19.638857-114.505143-40.905143-226.980571-40.905142-226.980572l-56.466286 96L27.126857-121.563429 172.333714 256z m679.350857 0l145.206858-377.563429-287.250286 93.257143-56.466286-96S631.908571-11.830857 612.269714 102.674286C775.872 152.868571 851.684571 256 851.684571 256z"  horiz-adv-x="1024" />

    
    <glyph glyph-name="voice-cancel" unicode="&#58932;" d="M835.514182-33.256727c-11.217455 0-20.305455 9.076364-20.305455 20.305454V560.989091c0 128.965818-104.529455 233.495273-233.483636 233.495273S348.241455 689.954909 348.241455 560.989091v-456.820364h141.986909l-192.756364-223.185454L104.727273 104.168727h141.986909V560.989091c0 185.018182 149.992727 335.010909 335.010909 335.010909 185.018182 0 335.010909-149.992727 335.010909-335.010909v-573.940364c0-11.217455-9.088-20.305455-20.305455-20.305454h-60.916363z"  horiz-adv-x="1024" />

    
    <glyph glyph-name="voice-failed" unicode="&#58933;" d="M445.203692 896l21.267693-740.115692h87.906461L577.063385 896H445.203692zM510.424615 52.381538c-24.103385 0-43.953231-7.089231-60.967384-24.103384C432.443077 12.681846 425.353846-7.168 425.353846-31.271385c0-24.103385 7.089231-43.953231 24.103385-60.967384 17.014154-15.596308 36.864-24.103385 60.967384-24.103385 24.103385 0 45.371077 8.507077 62.385231 24.103385 15.596308 15.596308 24.103385 35.446154 24.103385 60.967384 0 24.103385-8.507077 43.953231-24.103385 59.549539C555.795692 45.292308 534.528 52.381538 510.424615 52.381538z"  horiz-adv-x="1024" />

    
    <glyph glyph-name="voice-record" unicode="&#58934;" d="M750.933333 600.177778h466.488889a22.755556 22.755556 0 0 0 0-45.511111H750.933333a22.755556 22.755556 0 0 0 0 45.511111z m0 159.288889h523.377778a22.755556 22.755556 0 0 0 0-45.511111H750.933333a22.755556 22.755556 0 0 0 0 45.511111z m0-318.577778h352.711111a22.755556 22.755556 0 0 0 0-45.511111H750.933333a22.755556 22.755556 0 0 0 0 45.511111z m0-159.288889h238.933334a22.755556 22.755556 0 0 0 0-45.511111H750.933333a22.755556 22.755556 0 0 0 0 45.511111z m0-159.288889h125.155556a22.755556 22.755556 0 0 0 0-45.511111H750.933333a22.755556 22.755556 0 0 0 0 45.511111z m0-159.288889h11.377778a22.755556 22.755556 0 0 0 0-45.511111h-11.377778a22.755556 22.755556 0 0 0 0 45.511111zM314.959644 230.320356c-104.402489 0-189.0304 88.052622-189.0304 196.653511v272.384C125.929244 807.958756 210.557156 896 314.959644 896c104.391111 0 189.019022-88.029867 189.019023-196.653511v-272.384c0-108.589511-84.627911-196.642133-189.019023-196.642133z m274.830223 274.1248c21.959111 0 39.7312-17.430756 39.7312-38.923378v-53.327645c0-154.680889-125.098667-287.891911-276.935111-309.794133V-76.8h100.841244c22.493867 0 50.403556-2.958222 50.403556-25.6 0-22.596267-27.909689-25.6-50.403556-25.6h-277.276444c-22.528 0-50.403556 3.003733-50.403556 25.6 0 22.641778 27.875556 25.6 50.403556 25.6h100.829866V102.4C120.081067 119.751111 0 253.986133 0 412.194133v53.327645c0 21.504 17.8176 38.912 39.7312 38.912 22.004622 0 39.799467-17.408 39.799467-38.912v-53.327645c0-126.998756 105.528889-230.377244 235.258311-230.377244 129.718044 0 235.224178 103.378489 235.224178 230.377244v53.327645c0 21.504 17.8176 38.912 39.776711 38.912z"  horiz-adv-x="1297" />

    
    <glyph glyph-name="unknow" unicode="&#58935;" d="M504.978286 896C406.674286 896 330.215619 865.962667 275.602286 805.888 220.988952 748.544 195.047619 672.085333 195.047619 576.512h107.861333c0 66.901333 15.018667 118.784 45.056 157.013333 32.768 45.056 83.285333 66.901333 151.552 66.901334 57.344 0 102.4-15.018667 133.802667-47.786667 30.037333-30.037333 46.421333-72.362667 46.421333-126.976 0-38.229333-13.653333-73.728-40.96-107.861333-8.192-10.922667-24.576-27.306667-46.421333-49.152-73.728-65.536-118.784-117.418667-137.898667-158.378667-16.384-34.133333-24.576-73.728-24.576-118.784v-31.402667h109.226667v31.402667c0 36.864 8.192 69.632 25.941333 99.669333 13.653333 24.576 34.133333 49.152 64.170667 75.093334 60.074667 53.248 96.938667 88.746667 110.592 105.130666 34.133333 45.056 51.882667 98.304 51.882667 159.744 0 81.92-25.941333 146.090667-76.458667 192.512C661.991619 872.789333 592.359619 896 504.978286 896z m-20.48-831.488c-23.210667 0-42.325333-6.826667-58.709334-23.210667-16.384-15.018667-23.210667-34.133333-23.210666-57.344s6.826667-42.325333 23.210666-58.709333c16.384-15.018667 35.498667-23.210667 58.709334-23.210667s42.325333 8.192 58.709333 23.210667c16.384 15.018667 24.576 34.133333 24.576 58.709333 0 23.210667-8.192 42.325333-23.210667 57.344-16.384 16.384-36.864 23.210667-60.074666 23.210667z"  horiz-adv-x="1024" />

    
    <glyph glyph-name="fenlei" unicode="&#58936;" d="M45.511111 861.252267h354.144711a45.511111 45.511111 0 0 0 45.511111-45.511111V461.596444a45.511111 45.511111 0 0 0-45.511111-45.511111H45.511111a45.511111 45.511111 0 0 0-45.511111 45.511111V815.741156a45.511111 45.511111 0 0 0 45.511111 45.511111z m0-544.085334h354.144711a45.511111 45.511111 0 0 0 45.511111-45.511111V-82.488889a45.511111 45.511111 0 0 0-45.511111-45.511111H45.511111a45.511111 45.511111 0 0 0-45.511111 45.511111V271.655822a45.511111 45.511111 0 0 0 45.511111 45.511111z m519.350045 0h354.144711a45.511111 45.511111 0 0 0 45.511111-45.511111V-82.488889a45.511111 45.511111 0 0 0-45.511111-45.511111H564.861156a45.511111 45.511111 0 0 0-45.511112 45.511111V271.655822a45.511111 45.511111 0 0 0 45.511112 45.511111zM774.144 861.548089l215.426844-215.426845a45.511111 45.511111 0 0 0 0-64.375466l-215.426844-215.426845a45.511111 45.511111 0 0 0-64.375467 0l-215.426844 215.426845a45.511111 45.511111 0 0 0 0 64.375466l215.426844 215.426845a45.511111 45.511111 0 0 0 64.375467 0z"  horiz-adv-x="1024" />

    
    <glyph glyph-name="rate" unicode="&#58937;" d="M234.666667 832h554.666666a170.666667 170.666667 0 0 0 170.666667-170.666667v-554.666666a170.666667 170.666667 0 0 0-170.666667-170.666667H234.666667a170.666667 170.666667 0 0 0-170.666667 170.666667V661.333333a170.666667 170.666667 0 0 0 170.666667 170.666667z m248.853333-546.410667l-34.026667-126.4 122.816 30.506667-88.789333 95.893333z m21.504 25.877334l91.754667-96.426667 284.437333 284.437333L783.36 597.333333 505.024 311.46666700000003zM224 579.093333a10.666667 10.666667 0 0 1-10.666667-10.666666v-10.666667a10.666667 10.666667 0 0 1 10.666667-10.666667h362.666667a10.666667 10.666667 0 0 1 10.666666 10.666667v10.666667a10.666667 10.666667 0 0 1-10.666666 10.666666h-362.666667z m0-106.666666a10.666667 10.666667 0 0 1-10.666667-10.666667v-10.666667a10.666667 10.666667 0 0 1 10.666667-10.666666h277.333333a10.666667 10.666667 0 0 1 10.666667 10.666666v10.666667a10.666667 10.666667 0 0 1-10.666667 10.666667h-277.333333z m0-85.333334a10.666667 10.666667 0 0 1-10.666667-10.666666v-10.666667a10.666667 10.666667 0 0 1 10.666667-10.666667h277.333333a10.666667 10.666667 0 0 1 10.666667 10.666667v10.666667a10.666667 10.666667 0 0 1-10.666667 10.666666h-277.333333z"  horiz-adv-x="1024" />

    
    <glyph glyph-name="aopen" unicode="&#58938;" d="M966.4 572.8c-9.6 9.6-25.6 9.6-35.2 0l-416-416-425.6 416c-9.6 9.6-25.6 9.6-35.2 0-9.6-9.6-9.6-25.6 0-35.2l441.6-432c9.6-9.6 25.6-9.6 35.2 0l435.2 432c9.6 12.8 9.6 25.6 0 35.2z"  horiz-adv-x="1024" />

    
    <glyph glyph-name="aclose" unicode="&#58939;" d="M966.4 227.20000000000005l-435.2 432c-9.6 9.6-25.6 9.6-35.2 0l-441.6-432c-9.6-9.6-9.6-25.6 0-35.2 9.6-9.6 25.6-9.6 35.2 0l425.6 416 416-416c9.6-9.6 25.6-9.6 35.2 0s9.6 25.6 0 35.2z"  horiz-adv-x="1024" />

    
    <glyph glyph-name="Shape" unicode="&#58940;" d="M0 462.944503l600.460733-590.408377 600.460733 590.408377H0zM954.303665 896H250.638743l349.956021-370.73089L954.303665 896z m236.967539-370.998953L1003.359162 857.532984 686.106806 525.001047h505.164398zM199.036649 860.213613L9.650262 525.001047h505.834555L199.036649 860.213613z"  horiz-adv-x="1200" />

    
    <glyph glyph-name="Shape1" unicode="&#58941;" d="M848.88613 511.143339l31.12492 27.425228C986.23012 629.870715 1060.39873 823.931008 1005.321811 879.128543c-54.498458 54.619073-264.969827-32.97969-339.948284-125.554453l-27.305844-31.128613L169.569255 879.938389c-24.414767 6.018461-50.217843-1.272615-68.036918-19.092922-33.901536-33.906459-25.917537-90.95507 16.083691-114.215376l358.692898-208.177216-325.137208-370.184589-91.409224 52.883689c-15.619691 9.026461-35.289844 6.48-48.13415-6.364307-15.503999-15.622153-15.503999-40.849228 0-56.471381L285.739093-116.283078c15.503999-15.622153 40.728612-15.622153 56.349535 0 12.727384 12.728614 15.388307 32.516921 6.363076 48.139074l-52.763073 91.764916 369.453512 325.631977L872.836897-9.822778c23.256614-42.006151 80.068917-49.99015 113.971684-16.084922 17.819076 17.821537 24.991998 43.741535 19.091691 68.158765L848.88613 511.143339z"  horiz-adv-x="1024" />

    
    <glyph glyph-name="CombinedShape" unicode="&#58942;" d="M157.538462 896h708.923076c87.005538 0 157.538462-70.532923 157.538462-157.538462v-708.923076c0-87.005538-70.532923-157.538462-157.538462-157.538462H157.538462C70.532923-128 0-57.467077 0 29.538462V738.461538C0 825.467077 70.532923 896 157.538462 896zM96 160.984615h44.110769V607.133538H96V160.984615z m96.964923 0h185.895385v39.699693H235.815385v173.292307h127.92123v37.179077H235.815385V568.064h136.743384v39.069538h-179.593846V160.984615z m214.173539 0h171.401846v40.96H451.249231V607.133538H407.138462V160.984615z m238.749538 408.339693h86.331077v37.80923H516.706462v-37.80923h85.700923V160.984615h43.480615V569.324308z m281.6-294.281846c0 18.064-2.731077 33.817846-8.192 47.261538-5.460923 13.443692-12.812308 25.206154-22.055385 35.288615-9.243077 10.082462-19.639385 18.904615-31.192615 26.466462-11.553231 7.561846-23.211077 14.283077-34.973538 20.164923a302.96 302.96 0 0 0-26.781539 15.123692c-8.611692 5.460923-16.173538 11.762462-22.685538 18.904616-6.510769 7.142154-11.657846 15.334154-15.43877 24.576-3.780923 9.243077-5.671385 20.164923-5.671384 32.768 0 14.283077 2.100923 26.676923 6.301538 37.179077 4.200615 10.502154 9.661538 19.113846 16.384 25.836307 6.721231 6.721231 14.387692 11.657846 23.000616 14.808616 8.611692 3.150769 17.329231 4.726154 26.151384 4.726154 13.443692 0 25.836308-2.625231 37.179077-7.876924 11.342769-5.251692 21.214769-13.969231 29.617231-26.151384l27.096615 30.877538c-10.923077 14.704-24.471385 25.521231-40.644923 32.452923-16.173538 6.931692-34.343385 10.397538-54.508307 10.397539-14.704 0-28.776615-2.520615-42.220308-7.561846-13.443692-5.041231-25.521231-12.707692-36.233846-23.000616s-19.219692-23.105231-25.521231-38.439384c-6.301538-15.334154-9.452308-33.292308-9.452308-53.878154 0-17.644308 2.520615-33.083077 7.561846-46.316308 5.041231-13.233231 11.657846-24.680615 19.849847-34.343384 8.192-9.661538 17.748923-18.169846 28.672-25.521231 10.923077-7.351385 22.475077-13.969231 34.658461-19.849846 10.082462-5.041231 19.639385-10.502154 28.672-16.384 9.032615-5.881846 17.12-12.603077 24.260923-20.164923 7.142154-7.561846 12.812308-16.173538 17.014154-25.836308 4.200615-9.661538 6.301538-20.795077 6.301538-33.398154 0-26.466462-6.827077-46.841846-20.48-61.124923-13.652923-14.283077-30.562462-21.425231-50.727384-21.425231-15.123692 0-30.036923 3.780923-44.740923 11.342769-14.704 7.561846-26.886154 18.274462-36.548923 32.137847l-27.096616-30.877539c11.762462-15.963077 27.201231-28.776615 46.316308-38.439385 19.113846-9.661538 40.014769-14.493538 62.700308-14.493538 15.544615 0 30.247385 2.835692 44.110769 8.507077 13.863385 5.671385 25.940923 13.863385 36.233846 24.576s18.379077 23.735385 24.260923 39.069538 8.822154 32.873846 8.822154 52.617847z"  horiz-adv-x="1024" />

    
    <glyph glyph-name="CombinedShape1" unicode="&#58943;" d="M756.468571 189.04457100000002l43.468572 75.289143 63.342857-36.571428-40.868571-70.787429C900.765714 112.30971399999999 949.142857 57.980571000000054 949.142857 18.285713999999984c0-80-196.483429-146.285714-438.857143-146.285714S71.428571-61.714286000000016 71.428571 18.285713999999984s196.483429 219.428571 438.857143 219.428572c91.242286 0 175.981714-19.76 246.182857-48.669715zM510.285714 310.85714299999995c-161.582857 0-292.571429 130.988571-292.571428 292.571428S348.702857 896 510.285714 896s292.571429-130.988571 292.571429-292.571429-130.988571-292.571429-292.571429-292.571428z m0 73.142857c80.790857 0 146.285714 32.747429 146.285715 73.142857 0 40.395429-65.494857 73.142857-146.285715 73.142857-80.790857 0-146.285714-32.747429-146.285714-73.142857 0-40.395429 65.494857-73.142857 146.285714-73.142857z m330.466286-122.115429c-36.077714 20.828571-48.949714 66.074286-28.752 101.057143 20.197714 34.984 65.817143 46.458286 101.894857 25.629715 36.076571-20.828571 48.948571-66.074286 28.750857-101.058286-20.197714-34.982857-65.817143-46.457143-101.893714-25.628572z"  horiz-adv-x="1024" />

    
    <glyph glyph-name="tubiao" unicode="&#58944;" d="M247.584 603.428571C294.539429 776.408 395.289143 896 512 896c116.710857 0 217.460571-119.592 264.416-292.571429H877.714286l73.142857-731.428571H73.142857l73.142857 731.428571h101.298286z m74.342857 0h380.146286C664.132571 734.603429 593.219429 822.857143 512 822.857143s-152.132571-88.253714-190.073143-219.428572zM256 384c20.197714 0 36.571429 16.373714 36.571429 36.571429 0 20.197714-16.373714 36.571429-36.571429 36.571428-20.197714 0-36.571429-16.373714-36.571429-36.571428 0-20.197714 16.373714-36.571429 36.571429-36.571429z m512 0c20.197714 0 36.571429 16.373714 36.571429 36.571429 0 20.197714-16.373714 36.571429-36.571429 36.571428-20.197714 0-36.571429-16.373714-36.571429-36.571428 0-20.197714 16.373714-36.571429 36.571429-36.571429z"  horiz-adv-x="1024" />

    
    <glyph glyph-name="tubiao1" unicode="&#58945;" d="M810.66777963 13.211425780000013C483.64791429 13.211425780000013 218.5447591 179.21937773000002 218.5447591 384S483.64791429 754.78857422 810.66777963 754.78857422s592.12302053-166.00795194 592.12302051-370.78857422S1137.68764495 13.211425780000013 810.66777963 13.211425780000013z m0 234.85648642c75.46721769 0 136.64377374 61.17655605 136.64377374 136.64377447s-61.17655605 136.64377374-136.64377374 136.64377374-136.64377374-61.17655605-136.64377376-136.64377374 61.17655605-136.64377374 136.64377376-136.64377446z"  horiz-adv-x="1635" />

    
    <glyph glyph-name="CombinedShape2" unicode="&#58946;" d="M512-128C229.230769-128 0 101.230769 0 384S229.230769 896 512 896s512-229.230769 512-512-229.230769-512-512-512z m-99.323077 697.154462a12.307692 12.307692 0 0 1-6.523077 1.870769c-6.797538 0-12.307692-5.511385-12.307692-12.307693v-349.435076a12.307692 12.307692 0 0 1 1.870769-6.523077c3.602462-5.763692 11.196308-7.516308 16.96-3.913847L692.224 373.563077a12.307692 12.307692 0 0 1 3.913846 3.913846c3.602462 5.763692 1.849846 13.357538-3.913846 16.96L412.676923 569.154462z"  horiz-adv-x="1024" />

    


  </font>
</defs>
</svg>
